<svg width="38" height="34" viewBox="0 0 38 34" fill="none" xmlns="http://www.w3.org/2000/svg">
<path d="M12.576 0.263998L30.672 20.76V11.112C30.672 9.224 30.592 7.784 30.432 6.792C30.272 5.768 30.032 4.968 29.712 4.392C29.36 3.784 28.848 3.32 28.176 3C27.504 2.68 26.496 2.52 25.152 2.52V0.263998H37.536V2.52C35.84 2.648 34.688 3.112 34.08 3.912C33.792 4.296 33.568 4.888 33.408 5.688C33.248 6.456 33.168 7.56 33.168 9V24.888C33.168 25.816 33.2 26.744 33.264 27.672C33.328 28.568 33.424 29.384 33.552 30.12C33.68 30.856 33.776 31.496 33.84 32.04C33.904 32.584 33.936 33.032 33.936 33.384H30.576L7.872 7.56V22.248C7.872 23.848 7.968 25.192 8.16 26.28C8.352 27.368 8.656 28.248 9.072 28.92C9.488 29.56 10.032 30.024 10.704 30.312C11.376 30.6 12.208 30.744 13.2 30.744H13.536V33H0.528V30.744H0.816C1.776 30.744 2.576 30.6 3.216 30.312C3.856 29.992 4.352 29.56 4.704 29.016C5.056 28.44 5.296 27.752 5.424 26.952C5.584 26.152 5.664 25.256 5.664 24.264V5.016C4.832 4.28 4.016 3.72 3.216 3.336C2.448 2.92 1.616 2.648 0.72 2.52V0.263998H12.576Z" fill="black"/>
</svg>
